HIERARCHY
ROOT Hips
{
	OFFSET 0.00000 0.00000 0.00000
	CHANNELS 6 Xposition Yposition Zposition Zrotation Yrotation Xrotation 
	JOINT LHipJoint
	{
		OFFSET 0 0 0
		CHANNELS 3 Zrotation Yrotation Xrotation
		JOINT LeftUpLeg
		{
			OFFSET 1.48831 -1.59570 0.95625
			CHANNELS 3 Zrotation Yrotation Xrotation
			JOINT LeftLeg
			{
				OFFSET 2.20856 -6.06797 0.00000
				CHANNELS 3 Zrotation Yrotation Xrotation
				JOINT LeftFoot
				{
					OFFSET 2.62924 -7.22379 0.00000
					CHANNELS 3 Zrotation Yrotation Xrotation
					JOINT LeftToeBase
					{
						OFFSET 0.16802 -0.46163 2.41673
						CHANNELS 3 Zrotation Yrotation Xrotation
						End Site
						{
							OFFSET 0.00000 -0.00000 1.23760
						}
					}
				}
			}
		}
	}
	JOINT RHipJoint
	{
		OFFSET 0 0 0
		CHANNELS 3 Zrotation Yrotation Xrotation
		JOINT RightUpLeg
		{
			OFFSET -1.56796 -1.59570 0.95625
			CHANNELS 3 Zrotation Yrotation Xrotation
			JOINT RightLeg
			{
				OFFSET -2.29239 -6.29829 0.00000
				CHANNELS 3 Zrotation Yrotation Xrotation
				JOINT RightFoot
				{
					OFFSET -2.66963 -7.33475 0.00000
					CHANNELS 3 Zrotation Yrotation Xrotation
					JOINT RightToeBase
					{
						OFFSET -0.18185 -0.49964 2.34359
						CHANNELS 3 Zrotation Yrotation Xrotation
						End Site
						{
							OFFSET -0.00000 -0.00000 1.20477
						}
					}
				}
			}
		}
	}
	JOINT LowerBack
	{
		OFFSET 0 0 0
		CHANNELS 3 Zrotation Yrotation Xrotation
		JOINT Spine
		{
			OFFSET 0.03505 2.15832 -0.34324
			CHANNELS 3 Zrotation Yrotation Xrotation
			JOINT Spine1
			{
				OFFSET -0.01089 2.17963 0.04689
				CHANNELS 3 Zrotation Yrotation Xrotation
				JOINT Neck
				{
					OFFSET 0 0 0
					CHANNELS 3 Zrotation Yrotation Xrotation
					JOINT Neck1
					{
						OFFSET 0.04686 1.69404 0.22159
						CHANNELS 3 Zrotation Yrotation Xrotation
						JOINT Head
						{
							OFFSET 0.00265 1.69305 -0.01513
							CHANNELS 3 Zrotation Yrotation Xrotation
							End Site
							{
								OFFSET -0.00415 1.80215 -0.03034
							}
						}
					}
				}
				JOINT LeftShoulder
				{
					OFFSET 0 0 0
					CHANNELS 3 Zrotation Yrotation Xrotation
					JOINT LeftArm
					{
						OFFSET 3.67184 1.11724 -0.19002
						CHANNELS 3 Zrotation Yrotation Xrotation
						JOINT LeftForeArm
						{
							OFFSET 5.17714 -0.00000 -0.00000
							CHANNELS 3 Zrotation Yrotation Xrotation
							JOINT LeftHand
							{
								OFFSET 3.43679 -0.00000 -0.00000
								CHANNELS 3 Zrotation Yrotation Xrotation
								JOINT LeftFingerBase
								{
									OFFSET 0 0 0
									CHANNELS 3 Zrotation Yrotation Xrotation
									JOINT LeftHandIndex1
									{
										OFFSET 0.57312 -0.00000 -0.00000
										CHANNELS 3 Zrotation Yrotation Xrotation
										End Site
										{
											OFFSET 0.46206 -0.00000 -0.00000
										}
									}
								}
								JOINT LThumb
								{
									OFFSET 0 0 0
									CHANNELS 3 Zrotation Yrotation Xrotation
									End Site
									{
										OFFSET 0.46912 -0.00000 0.46912
									}
								}
							}
						}
					}
				}
				JOINT RightShoulder
				{
					OFFSET 0 0 0
					CHANNELS 3 Zrotation Yrotation Xrotation
					JOINT RightArm
					{
						OFFSET -3.59596 0.95831 -0.26050
						CHANNELS 3 Zrotation Yrotation Xrotation
						JOINT RightForeArm
						{
							OFFSET -5.23908 -0.00000 -0.00000
							CHANNELS 3 Zrotation Yrotation Xrotation
							JOINT RightHand
							{
								OFFSET -3.46485 -0.00000 -0.00000
								CHANNELS 3 Zrotation Yrotation Xrotation
								JOINT RightFingerBase
								{
									OFFSET 0 0 0
									CHANNELS 3 Zrotation Yrotation Xrotation
									JOINT RightHandIndex1
									{
										OFFSET -0.60875 -0.00000 -0.00000
										CHANNELS 3 Zrotation Yrotation Xrotation
										End Site
										{
											OFFSET -0.49079 -0.00000 -0.00000
										}
									}
								}
								JOINT RThumb
								{
									OFFSET 0 0 0
									CHANNELS 3 Zrotation Yrotation Xrotation
									End Site
									{
										OFFSET -0.49829 -0.00000 0.49829
									}
								}
							}
						}
					}
				}
			}
		}
	}
}
MOTION
Frames: 9
Frame Time: .0083333
4.8184 16.0371 -3.3603 21.4953 -51.9326 36.3187 0.0000 0.0000 0.0000 -31.6919 -13.0061 -68.8935 1.7857 8.4047 23.9503 -0.8679 -16.3413 8.1840 2.0575 8.9849 25.7482 0.0000 0.0000 0.0000 -22.0974 5.7220 -71.5425 -5.8237 -14.2553 44.2699 -1.8625 -7.7612 -29.5477 -0.0008 -0.1851 0.5087 10.7741 0.2738 53.9677 5.9327 4.4156 17.1161 -0.0356 1.7546 -1.3984 1.8646 -3.3808 -11.5564 2.5172 -4.9089 -18.8587 0.5646 -3.0203 -4.2590 0.0000 0.0000 0.0000 46.2430 -40.8969 -58.5906 25.5705 -36.7814 -8.6292 -0.0000 0.0000 -35.9492 29.0749 -1.1493 -0.6390 -7.1250 0.0000 -0.0000 1.9482 28.6627 -0.7754 0.0000 0.0000 0.0000 -58.7380 48.0413 -75.7796 -7.8903 13.3748 -0.9266 0.0000 0.0000 28.0922 -33.7744 -13.9273 9.1446 7.1250 -0.0000 -0.0000 -6.0422 -46.5015 0.2247
4.8168 16.0391 -3.3498 21.3716 -51.8876 36.4892 0.0000 0.0000 0.0000 -31.7917 -12.9124 -68.9781 1.7835 8.3997 23.9350 -0.8789 -16.4583 8.3994 2.0945 9.0601 25.9837 0.0000 0.0000 0.0000 -22.0490 5.7420 -71.5172 -5.8058 -14.2375 44.1973 -1.8682 -7.7887 -29.6016 -0.0010 -0.2016 0.5540 10.7385 0.2450 54.0639 5.9244 4.3791 17.1077 -0.0129 1.7342 -1.4202 1.8322 -3.3729 -11.4626 2.5457 -4.8878 -18.8375 0.5811 -3.0067 -4.2655 0.0000 0.0000 0.0000 46.9085 -40.9679 -58.9854 25.5355 -36.7464 -8.6083 -0.0000 0.0000 -35.8610 28.9972 -1.1319 -0.6273 -7.1250 0.0000 -0.0000 1.8883 28.6837 -0.7506 0.0000 0.0000 0.0000 -58.8739 47.9761 -75.5947 -7.9417 13.4584 -0.9385 0.0000 0.0000 27.7279 -33.8283 -13.9929 9.2045 7.1250 -0.0000 -0.0000 -6.0927 -46.5867 0.2395
4.8154 16.0409 -3.3388 21.2411 -51.8302 36.6796 0.0000 0.0000 0.0000 -31.9010 -12.8187 -69.0710 1.7792 8.3901 23.9055 -0.8905 -16.5845 8.6466 2.1339 9.1396 26.2329 0.0000 0.0000 0.0000 -21.9905 5.7488 -71.5063 -5.7890 -14.2207 44.1288 -1.8734 -7.8177 -29.6530 -0.0012 -0.2194 0.6029 10.7141 0.2060 54.1501 5.9104 4.3370 17.0921 0.0007 1.7121 -1.4474 1.8025 -3.3682 -11.3630 2.5717 -4.8715 -18.8021 0.5961 -2.9951 -4.2679 -0.0000 -0.0000 0.0000 47.5515 -41.0620 -59.3843 25.5089 -36.7196 -8.5923 -0.0000 0.0000 -35.7658 28.9461 -1.1116 -0.6147 -7.1250 0.0000 -0.0000 1.8492 28.7076 -0.7340 -0.0000 -0.0000 0.0000 -59.0059 47.9147 -75.4137 -7.9938 13.5427 -0.9507 0.0000 0.0000 27.3315 -33.8550 -14.0258 9.2345 7.1250 -0.0000 -0.0000 -6.1177 -46.6293 0.2469
4.8140 16.0428 -3.3277 21.1073 -51.7567 36.8889 0.0000 0.0000 0.0000 -32.0153 -12.7302 -69.1737 1.7732 8.3769 23.8647 -0.9016 -16.7128 8.9325 2.1794 9.2302 26.5182 0.0000 0.0000 0.0000 -21.9238 5.7415 -71.5105 -5.7739 -14.2055 44.0672 -1.8784 -7.8525 -29.7072 -0.0014 -0.2376 0.6528 10.6981 0.1578 54.2201 5.8970 4.2887 17.0714 0.0130 1.6877 -1.4779 1.7717 -3.3662 -11.2511 2.5935 -4.8591 -18.7645 0.6102 -2.9851 -4.2716 0.0000 0.0000 0.0000 48.1632 -41.1745 -59.7772 25.4881 -36.6987 -8.5799 -0.0000 0.0000 -35.6705 28.9195 -1.1031 -0.6094 -7.1250 0.0000 -0.0000 1.8287 28.7177 -0.7254 0.0000 0.0000 0.0000 -59.1461 47.8607 -75.2487 -8.0459 13.6272 -0.9629 0.0000 0.0000 26.9112 -33.8733 -14.0500 9.2561 7.1250 -0.0000 -0.0000 -6.1347 -46.6606 0.2523
4.8127 16.0445 -3.3166 20.9802 -51.6705 37.1062 0.0000 0.0000 0.0000 -32.1456 -12.6447 -69.2858 1.7662 8.3612 23.8165 -0.9124 -16.8459 9.2583 2.2290 9.3276 26.8257 0.0000 0.0000 0.0000 -21.8559 5.7204 -71.5296 -5.7613 -14.1930 44.0160 -1.8834 -7.8931 -29.7640 -0.0016 -0.2555 0.7020 10.6824 0.1064 54.2715 5.8888 4.2365 17.0495 0.0317 1.6615 -1.5088 1.7409 -3.3661 -11.1419 2.6061 -4.8510 -18.7125 0.6207 -2.9765 -4.2698 0.0000 0.0000 0.0000 48.7442 -41.3064 -60.1668 25.4722 -36.6827 -8.5704 -0.0000 0.0000 -35.5807 28.9218 -1.1154 -0.6162 -7.1250 0.0000 -0.0000 1.8302 28.7036 -0.7266 0.0000 0.0000 0.0000 -59.2933 47.8112 -75.0984 -8.0978 13.7113 -0.9752 0.0000 0.0000 26.4820 -33.8817 -14.0677 9.2702 7.1250 -0.0000 -0.0000 -6.1425 -46.6826 0.2560
4.8114 16.0462 -3.3057 20.8635 -51.5761 37.3254 0.0000 0.0000 0.0000 -32.2773 -12.5715 -69.4006 1.7584 8.3435 23.7624 -0.9211 -16.9675 9.6023 2.2814 9.4291 27.1472 0.0000 0.0000 0.0000 -21.7952 5.6931 -71.5611 -5.7518 -14.1834 43.9772 -1.8888 -7.9364 -29.8257 -0.0019 -0.2792 0.7670 10.6587 0.0577 54.3015 5.8887 4.1818 17.0321 0.0627 1.6337 -1.5345 1.7130 -3.3667 -11.0369 2.6037 -4.8466 -18.6567 0.6255 -2.9694 -4.2664 0.0000 -0.0000 0.0000 49.2962 -41.4502 -60.5497 25.4615 -36.6720 -8.5640 -0.0000 0.0000 -35.5080 28.9637 -1.1531 -0.6381 -7.1250 0.0000 -0.0000 1.8617 28.6600 -0.7411 0.0000 -0.0000 0.0000 -59.4523 47.7654 -74.9826 -8.1492 13.7945 -0.9874 0.0000 0.0000 26.0701 -33.8824 -14.0845 9.2811 7.1250 -0.0000 -0.0000 -6.1427 -46.7024 0.2590
4.8099 16.0478 -3.2950 20.7628 -51.4787 37.5325 0.0000 0.0000 0.0000 -32.4155 -12.5064 -69.5090 1.7498 8.3243 23.7035 -0.9281 -17.0795 9.9511 2.3329 9.5276 27.4601 0.0000 0.0000 0.0000 -21.7458 5.6633 -71.5980 -5.7458 -14.1774 43.9528 -1.8953 -7.9733 -29.8905 -0.0023 -0.3114 0.8556 10.6160 0.0188 54.3177 5.9028 4.1279 17.0222 0.1164 1.6049 -1.5543 1.6780 -3.3669 -10.9400 2.5929 -4.8428 -18.5993 0.6285 -2.9620 -4.2609 0.0000 0.0000 0.0000 49.8179 -41.5996 -60.9232 25.4552 -36.6656 -8.5602 -0.0000 0.0000 -35.4521 29.0107 -1.1855 -0.6573 -7.1250 0.0000 -0.0000 1.8973 28.6223 -0.7569 0.0000 0.0000 0.0000 -59.6278 47.7195 -74.8914 -8.1983 13.8738 -0.9991 0.0000 0.0000 25.6810 -33.8614 -14.0821 9.2724 7.1250 -0.0000 -0.0000 -6.1224 -46.6964 0.2572
4.8081 16.0487 -3.2849 20.6735 -51.3792 37.7290 0.0000 0.0000 0.0000 -32.5936 -12.4318 -69.6221 1.7407 8.3036 23.6401 -0.9385 -17.2219 10.2996 2.3645 9.5872 27.6500 0.0000 0.0000 0.0000 -21.7097 5.6383 -71.6393 -5.7437 -14.1752 43.9440 -1.9041 -8.0022 -29.9644 -0.0030 -0.3551 0.9756 10.5648 -0.0167 54.3216 5.9173 4.0714 17.0208 0.1749 1.5754 -1.5644 1.6441 -3.3660 -10.8550 2.5876 -4.8375 -18.5450 0.6329 -2.9543 -4.2545 -0.0000 -0.0000 0.0000 50.3295 -41.7488 -61.2842 25.4543 -36.6647 -8.5597 -0.0000 0.0000 -35.4140 29.0306 -1.1691 -0.6488 -7.1250 0.0000 -0.0000 1.9132 28.6408 -0.7625 -0.0000 -0.0000 0.0000 -59.8039 47.6740 -74.8390 -8.2451 13.9494 -1.0104 0.0000 0.0000 25.3320 -33.8436 -14.0854 9.2683 7.1250 -0.0000 -0.0000 -6.1050 -46.6973 0.2567
4.8061 16.0488 -3.2753 20.5898 -51.2763 37.9177 0.0000 0.0000 0.0000 -32.7884 -12.3606 -69.7335 1.7309 8.2816 23.5727 -0.9515 -17.3820 10.6229 2.3754 9.6078 27.7157 0.0000 0.0000 0.0000 -21.6830 5.6196 -71.6818 -5.7448 -14.1764 43.9487 -1.9156 -8.0189 -30.0484 -0.0041 -0.4121 1.1325 10.5125 -0.0467 54.3159 5.9326 4.0180 17.0272 0.2335 1.5478 -1.5650 1.6104 -3.3674 -10.7823 2.5959 -4.8340 -18.4988 0.6418 -2.9485 -4.2486 -0.0000 0.0000 0.0000 50.8460 -41.9032 -61.6434 25.4563 -36.6668 -8.5609 -0.0000 0.0000 -35.3931 29.0461 -1.1339 -0.6297 -7.1250 0.0000 -0.0000 1.9264 28.6807 -0.7659 -0.0000 0.0000 0.0000 -59.9647 47.6243 -74.8157 -8.2896 14.0212 -1.0211 0.0000 0.0000 25.0303 -33.8307 -14.0885 9.2659 7.1250 -0.0000 -0.0000 -6.0924 -46.6990 0.2564
